<svg id="visual" viewBox="0 0 1920 1080" width="1920" height="1080" xmlns="http://www.w3.org/2000/svg" xmlns:xlink="http://www.w3.org/1999/xlink" version="1.1"><rect x="0" y="0" width="1920" height="1080" fill="#002233"></rect><path d="M0 890L45.7 893.2C91.3 896.3 182.7 902.7 274.2 906.5C365.7 910.3 457.3 911.7 548.8 892.5C640.3 873.3 731.7 833.7 823 814C914.3 794.3 1005.7 794.7 1097 797.5C1188.3 800.3 1279.7 805.7 1371.2 821C1462.7 836.3 1554.3 861.7 1645.8 853.3C1737.3 845 1828.7 803 1874.3 782L1920 761L1920 1081L1874.3 1081C1828.7 1081 1737.3 1081 1645.8 1081C1554.3 1081 1462.7 1081 1371.2 1081C1279.7 1081 1188.3 1081 1097 1081C1005.7 1081 914.3 1081 823 1081C731.7 1081 640.3 1081 548.8 1081C457.3 1081 365.7 1081 274.2 1081C182.7 1081 91.3 1081 45.7 1081L0 1081Z" fill="#0066FF" stroke-linecap="round" stroke-linejoin="miter"></path></svg>